<svg width="2050" height="2222" xmlns="http://www.w3.org/2000/svg" xmlns:xlink="http://www.w3.org/1999/xlink" xml:space="preserve" overflow="hidden"><g transform="translate(-128 -6)"><text font-family="Arial,Arial_MSFontService,sans-serif" font-weight="400" font-size="37" transform="matrix(1 0 0 1 1273.37 2061)">Resource</text><text font-family="Arial,Arial_MSFontService,sans-serif" font-weight="400" font-size="37" transform="matrix(1 0 0 1 1263.92 2105)">scheduling</text><path d="M205.5 1074.17C205.5 1052.26 223.26 1034.5 245.168 1034.5L447.832 1034.5C469.74 1034.5 487.5 1052.26 487.5 1074.17L487.5 1232.83C487.5 1254.74 469.74 1272.5 447.832 1272.5L245.168 1272.5C223.26 1272.5 205.5 1254.74 205.5 1232.83Z" stroke="#9AAED0" stroke-width="4.58333" stroke-miterlimit="8" fill="#EDF4FA" fill-rule="evenodd"/><text font-family="Arial,Arial_MSFontService,sans-serif" font-weight="400" font-size="37" transform="matrix(1 0 0 1 256.012 1145)">Large MS2 </text><text font-family="Arial,Arial_MSFontService,sans-serif" font-weight="400" font-size="37" transform="matrix(1 0 0 1 285.506 1189)">dataset</text><path d="M553.5 1117C553.5 1106.78 561.783 1098.5 572 1098.5L817 1098.5C827.217 1098.5 835.5 1106.78 835.5 1117L835.5 1191C835.5 1201.22 827.217 1209.5 817 1209.5L572 1209.5C561.783 1209.5 553.5 1201.22 553.5 1191Z" stroke="#9AAED0" stroke-width="4.58333" stroke-miterlimit="8" fill="#EDF4FA" fill-rule="evenodd"/><text font-family="Arial,Arial_MSFontService,sans-serif" font-weight="400" font-size="37" transform="matrix(1 0 0 1 614.951 1145)">Database </text><text font-family="Arial,Arial_MSFontService,sans-serif" font-weight="400" font-size="37" transform="matrix(1 0 0 1 638.738 1189)">search</text><path d="M487.011 1151.85 530.366 1152.26 530.344 1154.55 486.989 1154.15ZM525.857 1144.19 553.271 1153.62 525.687 1162.53Z"/><path d="M901.5 1187.67C901.5 1178.19 909.186 1170.5 918.667 1170.5L1246.33 1170.5C1255.81 1170.5 1263.5 1178.19 1263.5 1187.67L1263.5 1256.33C1263.5 1265.81 1255.81 1273.5 1246.33 1273.5L918.667 1273.5C909.186 1273.5 901.5 1265.81 901.5 1256.33Z" stroke="#9AAED0" stroke-width="4.58333" stroke-miterlimit="8" fill="#EDF4FA" fill-rule="evenodd"/><text font-family="Arial,Arial_MSFontService,sans-serif" font-weight="400" font-size="37" transform="matrix(1 0 0 1 984.401 1214)">Unidentified</text><text font-family="Arial,Arial_MSFontService,sans-serif" font-weight="400" font-size="37" transform="matrix(1 0 0 1 1043.98 1258)">MS2</text><path d="M835.821 1152.2 886.106 1203.86 884.464 1205.45 834.179 1153.8ZM888.656 1194.98 901.27 1221.08 875.52 1207.77Z"/><path d="M0.821046-0.799261 51.1061 50.8564 49.464 52.4549-0.821046 0.799261ZM53.6564 41.9774 66.2703 68.0766 40.5197 54.7656Z" fill="#70AD47" transform="matrix(1 0 0 -1 835 1153.08)"/><path d="M1329.5 1051.67C1329.5 1042.19 1337.19 1034.5 1346.67 1034.5L1726.33 1034.5C1735.81 1034.5 1743.5 1042.19 1743.5 1051.67L1743.5 1120.33C1743.5 1129.81 1735.81 1137.5 1726.33 1137.5L1346.67 1137.5C1337.19 1137.5 1329.5 1129.81 1329.5 1120.33Z" stroke="#FBE3AA" stroke-width="4.58333" stroke-miterlimit="8" fill="#FBE3AA" fill-rule="evenodd"/><text font-family="Arial,Arial_MSFontService,sans-serif" font-weight="400" font-size="37" transform="matrix(1 0 0 1 1469.39 1099)">Training</text><path d="M1263 1083.85 1306.35 1083.85 1306.35 1086.15 1263 1086.15ZM1301.77 1075.83 1329.27 1085 1301.77 1094.17Z" fill="#70AD47"/><path d="M1329.5 1187.67C1329.5 1178.19 1337.19 1170.5 1346.67 1170.5L1726.33 1170.5C1735.81 1170.5 1743.5 1178.19 1743.5 1187.67L1743.5 1256.33C1743.5 1265.81 1735.81 1273.5 1726.33 1273.5L1346.67 1273.5C1337.19 1273.5 1329.5 1265.81 1329.5 1256.33Z" stroke="#CBECFE" stroke-width="4.58333" stroke-miterlimit="8" fill="#CBECFE" fill-rule="evenodd"/><text font-family="Arial,Arial_MSFontService,sans-serif" font-weight="400" font-size="37" transform="matrix(1 0 0 1 1423.53 1236)">Ï€</text><text font-family="Arial,Arial_MSFontService,sans-serif" font-weight="400" font-size="37" transform="matrix(1 0 0 1 1448.74 1236)">-</text><text font-family="Arial,Arial_MSFontService,sans-serif" font-weight="400" font-size="37" transform="matrix(1 0 0 1 1460.77 1236)">HelixNovo2</text><path d="M1263 1220.85 1306.61 1220.85 1306.61 1223.15 1263 1223.15ZM1302.03 1212.83 1329.53 1222 1302.03 1231.17Z"/><path d="M1743 1220.85 1790.23 1220.85 1790.23 1223.15 1743 1223.15ZM1785.65 1212.83 1813.15 1222 1785.65 1231.17Z" fill="#70AD47"/><path d="M1537.15 1136.99 1537.23 1147.59 1534.94 1147.61 1534.85 1137.01ZM1545.21 1142.95 1536.26 1170.52 1526.88 1143.09Z" fill="#70AD47"/><path d="M901.5 1051.67C901.5 1042.19 909.186 1034.5 918.667 1034.5L1246.33 1034.5C1255.81 1034.5 1263.5 1042.19 1263.5 1051.67L1263.5 1120.33C1263.5 1129.81 1255.81 1137.5 1246.33 1137.5L918.667 1137.5C909.186 1137.5 901.5 1129.81 901.5 1120.33Z" stroke="#70AD47" stroke-width="4.58333" stroke-miterlimit="8" fill="#C5E0B4" fill-rule="evenodd"/><text font-family="Arial,Arial_MSFontService,sans-serif" font-weight="400" font-size="37" transform="matrix(1 0 0 1 1032.81 1099)">PSMs</text><path d="M1813.5 1187.67C1813.5 1178.19 1821.19 1170.5 1830.67 1170.5L2158.33 1170.5C2167.81 1170.5 2175.5 1178.19 2175.5 1187.67L2175.5 1256.33C2175.5 1265.81 2167.81 1273.5 2158.33 1273.5L1830.67 1273.5C1821.19 1273.5 1813.5 1265.81 1813.5 1256.33Z" stroke="#70AD47" stroke-width="4.58333" stroke-miterlimit="8" fill="#C5E0B4" fill-rule="evenodd"/><text font-family="Arial,Arial_MSFontService,sans-serif" font-weight="400" font-size="37" transform="matrix(1 0 0 1 1947.06 1214)">Novel</text><text font-family="Arial,Arial_MSFontService,sans-serif" font-weight="400" font-size="37" transform="matrix(1 0 0 1 1924.15 1258)">peptides</text><path d="M1.1458-0.00845437 1.23728 12.3892-1.05433 12.4061-1.1458 0.00845437ZM9.22408 7.74679 0.260564 35.3137-9.10876 7.88206Z" fill="#70AD47" transform="matrix(-1 0 0 1 1536.26 1273)"/><path d="M205.5 1348.17C205.5 1326.26 223.26 1308.5 245.168 1308.5L447.832 1308.5C469.74 1308.5 487.5 1326.26 487.5 1348.17L487.5 1506.83C487.5 1528.74 469.74 1546.5 447.832 1546.5L245.168 1546.5C223.26 1546.5 205.5 1528.74 205.5 1506.83Z" stroke="#9AAED0" stroke-width="4.58333" stroke-miterlimit="8" fill="#EDF4FA" fill-rule="evenodd"/><text font-family="Arial,Arial_MSFontService,sans-serif" font-weight="400" font-size="37" transform="matrix(1 0 0 1 257.444 1419)">Small MS2 </text><text font-family="Arial,Arial_MSFontService,sans-serif" font-weight="400" font-size="37" transform="matrix(1 0 0 1 285.517 1463)">dataset</text><path d="M553.5 1393C553.5 1382.78 561.783 1374.5 572 1374.5L817 1374.5C827.217 1374.5 835.5 1382.78 835.5 1393L835.5 1467C835.5 1477.22 827.217 1485.5 817 1485.5L572 1485.5C561.783 1485.5 553.5 1477.22 553.5 1467Z" stroke="#9AAED0" stroke-width="4.58333" stroke-miterlimit="8" fill="#EDF4FA" fill-rule="evenodd"/><text font-family="Arial,Arial_MSFontService,sans-serif" font-weight="400" font-size="37" transform="matrix(1 0 0 1 614.951 1421)">Database </text><text font-family="Arial,Arial_MSFontService,sans-serif" font-weight="400" font-size="37" transform="matrix(1 0 0 1 638.738 1465)">search</text><path d="M487.035 1425.85 530.4 1427.18 530.33 1429.47 486.965 1428.15ZM526.062 1419.02 553.271 1429.02 525.504 1437.34Z"/><path d="M901.5 1462.67C901.5 1453.19 909.186 1445.5 918.667 1445.5L1245.33 1445.5C1254.81 1445.5 1262.5 1453.19 1262.5 1462.67L1262.5 1531.33C1262.5 1540.81 1254.81 1548.5 1245.33 1548.5L918.667 1548.5C909.186 1548.5 901.5 1540.81 901.5 1531.33Z" stroke="#9AAED0" stroke-width="4.58333" stroke-miterlimit="8" fill="#EDF4FA" fill-rule="evenodd"/><text font-family="Arial,Arial_MSFontService,sans-serif" font-weight="400" font-size="37" transform="matrix(1 0 0 1 983.906 1489)">Unidentified</text><text font-family="Arial,Arial_MSFontService,sans-serif" font-weight="400" font-size="37" transform="matrix(1 0 0 1 1043.49 1533)">MS2</text><path d="M835.819 1428.2 885.569 1479.06 883.93 1480.66 834.181 1429.8ZM888.097 1470.17 900.775 1496.24 874.992 1482.99Z"/><path d="M0.831185-0.788711 51.3273 52.4267 49.6649 54.0042-0.831185 0.788711ZM53.9907 43.581 66.2703 69.8392 40.6918 56.2004Z" fill="#70AD47" transform="matrix(1 0 0 -1 835 1429.84)"/><path d="M1329.5 1325.67C1329.5 1316.19 1337.19 1308.5 1346.67 1308.5L1726.33 1308.5C1735.81 1308.5 1743.5 1316.19 1743.5 1325.67L1743.5 1394.33C1743.5 1403.81 1735.81 1411.5 1726.33 1411.5L1346.67 1411.5C1337.19 1411.5 1329.5 1403.81 1329.5 1394.33Z" stroke="#D4B60D" stroke-width="4.58333" stroke-miterlimit="8" fill="#D4B60D" fill-rule="evenodd"/><text font-family="Arial,Arial_MSFontService,sans-serif" font-weight="400" font-size="37" transform="matrix(1 0 0 1 1443.61 1374)">Fine</text><text font-family="Arial,Arial_MSFontService,sans-serif" font-weight="400" font-size="37" transform="matrix(1 0 0 1 1515.23 1374)">-</text><text font-family="Arial,Arial_MSFontService,sans-serif" font-weight="400" font-size="37" transform="matrix(1 0 0 1 1527.26 1374)">tuning</text><path d="M1263 1358.85 1306.35 1358.85 1306.35 1361.15 1263 1361.15ZM1301.77 1350.83 1329.27 1360 1301.77 1369.17Z" fill="#70AD47"/><path d="M1329.5 1462.67C1329.5 1453.19 1337.19 1445.5 1346.67 1445.5L1726.33 1445.5C1735.81 1445.5 1743.5 1453.19 1743.5 1462.67L1743.5 1531.33C1743.5 1540.81 1735.81 1548.5 1726.33 1548.5L1346.67 1548.5C1337.19 1548.5 1329.5 1540.81 1329.5 1531.33Z" stroke="#CBECFE" stroke-width="4.58333" stroke-miterlimit="8" fill="#CBECFE" fill-rule="evenodd"/><text font-family="Arial,Arial_MSFontService,sans-serif" font-weight="400" font-size="37" transform="matrix(1 0 0 1 1447.87 1489)">Fine</text><text font-family="Arial,Arial_MSFontService,sans-serif" font-weight="400" font-size="37" transform="matrix(1 0 0 1 1519.49 1489)">-</text><text font-family="Arial,Arial_MSFontService,sans-serif" font-weight="400" font-size="37" transform="matrix(1 0 0 1 1531.52 1489)">tuned</text><text font-family="Arial,Arial_MSFontService,sans-serif" font-weight="400" font-size="37" transform="matrix(1 0 0 1 1423.53 1533)">Ï€</text><text font-family="Arial,Arial_MSFontService,sans-serif" font-weight="400" font-size="37" transform="matrix(1 0 0 1 1448.74 1533)">-</text><text font-family="Arial,Arial_MSFontService,sans-serif" font-weight="400" font-size="37" transform="matrix(1 0 0 1 1460.77 1533)">HelixNovo2</text><path d="M1262 1495.85 1306.11 1495.85 1306.11 1498.15 1262 1498.15ZM1301.53 1487.83 1329.03 1497 1301.53 1506.17Z"/><path d="M1743 1495.85 1790.23 1495.85 1790.23 1498.15 1743 1498.15ZM1785.65 1487.83 1813.15 1497 1785.65 1506.17Z" fill="#70AD47"/><path d="M1537.15 1410.99 1537.23 1422.52 1534.94 1422.53 1534.85 1411.01ZM1545.22 1417.87 1536.26 1445.44 1526.89 1418.01Z" fill="#70AD47"/><path d="M901.5 1325.67C901.5 1316.19 909.186 1308.5 918.667 1308.5L1246.33 1308.5C1255.81 1308.5 1263.5 1316.19 1263.5 1325.67L1263.5 1394.33C1263.5 1403.81 1255.81 1411.5 1246.33 1411.5L918.667 1411.5C909.186 1411.5 901.5 1403.81 901.5 1394.33Z" stroke="#70AD47" stroke-width="4.58333" stroke-miterlimit="8" fill="#C5E0B4" fill-rule="evenodd"/><text font-family="Arial,Arial_MSFontService,sans-serif" font-weight="400" font-size="37" transform="matrix(1 0 0 1 1032.81 1374)">PSMs</text><path d="M1813.5 1462.67C1813.5 1453.19 1821.19 1445.5 1830.67 1445.5L2158.33 1445.5C2167.81 1445.5 2175.5 1453.19 2175.5 1462.67L2175.5 1531.33C2175.5 1540.81 2167.81 1548.5 2158.33 1548.5L1830.67 1548.5C1821.19 1548.5 1813.5 1540.81 1813.5 1531.33Z" stroke="#70AD47" stroke-width="4.58333" stroke-miterlimit="8" fill="#C5E0B4" fill-rule="evenodd"/><text font-family="Arial,Arial_MSFontService,sans-serif" font-weight="400" font-size="37" transform="matrix(1 0 0 1 1947.06 1489)">Novel</text><text font-family="Arial,Arial_MSFontService,sans-serif" font-weight="400" font-size="37" transform="matrix(1 0 0 1 1924.15 1533)">peptides</text><path d="M1478.5 1941.57C1478.5 1931.04 1487.04 1922.5 1497.57 1922.5L2156.43 1922.5C2166.96 1922.5 2175.5 1931.04 2175.5 1941.57L2175.5 2204.43C2175.5 2214.96 2166.96 2223.5 2156.43 2223.5L1497.57 2223.5C1487.04 2223.5 1478.5 2214.96 1478.5 2204.43Z" stroke="#001E42" stroke-width="4.58333" stroke-miterlimit="8" fill="#C5E0B4" fill-rule="evenodd"/><path d="M1664.5 1998.67C1664.5 1989.19 1672.19 1981.5 1681.67 1981.5L1972.33 1981.5C1981.81 1981.5 1989.5 1989.19 1989.5 1998.67L1989.5 2067.33C1989.5 2076.81 1981.81 2084.5 1972.33 2084.5L1681.67 2084.5C1672.19 2084.5 1664.5 2076.81 1664.5 2067.33Z" stroke="#001E42" stroke-width="4.58333" stroke-miterlimit="8" fill="#CBECFE" fill-rule="evenodd"/><text font-family="Arial,Arial_MSFontService,sans-serif" font-weight="400" font-size="37" transform="matrix(1 0 0 1 1759.15 2047)">Network</text><path d="M1495.5 2119.5C1495.5 2110.11 1503.11 2102.5 1512.5 2102.5L1803.5 2102.5C1812.89 2102.5 1820.5 2110.11 1820.5 2119.5L1820.5 2187.5C1820.5 2196.89 1812.89 2204.5 1803.5 2204.5L1512.5 2204.5C1503.11 2204.5 1495.5 2196.89 1495.5 2187.5Z" stroke="#001E42" stroke-width="4.58333" stroke-miterlimit="8" fill="#FBE3AA" fill-rule="evenodd"/><text font-family="Arial,Arial_MSFontService,sans-serif" font-weight="400" font-size="37" transform="matrix(1 0 0 1 1568.66 2145)">Computing</text><text font-family="Arial,Arial_MSFontService,sans-serif" font-weight="400" font-size="37" transform="matrix(1 0 0 1 1607.62 2189)">power</text><path d="M1833.5 2119.5C1833.5 2110.11 1841.11 2102.5 1850.5 2102.5L2141.5 2102.5C2150.89 2102.5 2158.5 2110.11 2158.5 2119.5L2158.5 2187.5C2158.5 2196.89 2150.89 2204.5 2141.5 2204.5L1850.5 2204.5C1841.11 2204.5 1833.5 2196.89 1833.5 2187.5Z" stroke="#001E42" stroke-width="4.58333" stroke-miterlimit="8" fill="#D4B60D" fill-rule="evenodd"/><text font-family="Arial,Arial_MSFontService,sans-serif" font-weight="400" font-size="37" transform="matrix(1 0 0 1 1930.62 2167)">Storage</text><text font-family="Arial,Arial_MSFontService,sans-serif" font-weight="400" font-size="37" transform="matrix(1 0 0 1 1569.23 1965)">China </text><text font-family="Arial,Arial_MSFontService,sans-serif" font-weight="400" font-size="37" transform="matrix(1 0 0 1 1675.79 1965)">Computing</text><text font-family="Arial,Arial_MSFontService,sans-serif" font-weight="400" font-size="37" transform="matrix(1 0 0 1 1864.28 1965)">NET (CÂ²NET)</text><path d="M1.66886e-06-1.14583 224.871-1.14551 224.871 1.14616-1.66886e-06 1.14583ZM220.288-9.16635 247.788 0.000360892 220.288 9.16699Z" transform="matrix(-1 0 0 1 1477.79 2072)"/><path d="M1.66886e-06-1.14583 224.871-1.14551 224.871 1.14616-1.66886e-06 1.14583ZM220.288-9.16635 247.788 0.000360892 220.288 9.16699Z" transform="matrix(1 0 0 -1 1230 2072)"/><path d="M673.5 1941.57C673.5 1931.04 682.04 1922.5 692.574 1922.5L1211.43 1922.5C1221.96 1922.5 1230.5 1931.04 1230.5 1941.57L1230.5 2204.43C1230.5 2214.96 1221.96 2223.5 1211.43 2223.5L692.574 2223.5C682.04 2223.5 673.5 2214.96 673.5 2204.43Z" stroke="#001E42" stroke-width="4.58333" stroke-miterlimit="8" fill="#C5E0B4" fill-rule="evenodd"/><path d="M809.5 1998.67C809.5 1989.19 817.186 1981.5 826.667 1981.5L1073.33 1981.5C1082.81 1981.5 1090.5 1989.19 1090.5 1998.67L1090.5 2067.33C1090.5 2076.81 1082.81 2084.5 1073.33 2084.5L826.667 2084.5C817.186 2084.5 809.5 2076.81 809.5 2067.33Z" stroke="#001E42" stroke-width="4.58333" stroke-miterlimit="8" fill="#CBECFE" fill-rule="evenodd"/><text font-family="Arial,Arial_MSFontService,sans-serif" font-weight="400" font-size="37" transform="matrix(1 0 0 1 872.609 2047)">Inference</text><path d="M690.5 2119.5C690.5 2110.11 698.111 2102.5 707.5 2102.5L928.5 2102.5C937.889 2102.5 945.5 2110.11 945.5 2119.5L945.5 2187.5C945.5 2196.89 937.889 2204.5 928.5 2204.5L707.5 2204.5C698.111 2204.5 690.5 2196.89 690.5 2187.5Z" stroke="#001E42" stroke-width="4.58333" stroke-miterlimit="8" fill="#FBE3AA" fill-rule="evenodd"/><text font-family="Arial,Arial_MSFontService,sans-serif" font-weight="400" font-size="37" transform="matrix(1 0 0 1 750.75 2167)">Training</text><path d="M959.5 2119.5C959.5 2110.11 967.111 2102.5 976.5 2102.5L1196.5 2102.5C1205.89 2102.5 1213.5 2110.11 1213.5 2119.5L1213.5 2187.5C1213.5 2196.89 1205.89 2204.5 1196.5 2204.5L976.5 2204.5C967.111 2204.5 959.5 2196.89 959.5 2187.5Z" stroke="#001E42" stroke-width="4.58333" stroke-miterlimit="8" fill="#D4B60D" fill-rule="evenodd"/><text font-family="Arial,Arial_MSFontService,sans-serif" font-weight="400" font-size="37" transform="matrix(1 0 0 1 1050.25 2145)">Fine</text><text font-family="Arial,Arial_MSFontService,sans-serif" font-weight="400" font-size="37" transform="matrix(1 0 0 1 1035.65 2189)">tuning</text><text font-family="Arial,Arial_MSFontService,sans-serif" font-weight="400" font-size="37" transform="matrix(1 0 0 1 760.975 1964)">C</text><text font-family="Arial,Arial_MSFontService,sans-serif" font-weight="400" font-size="37" transform="matrix(1 0 0 1 787.329 1964)">omputational</text><text font-family="Arial,Arial_MSFontService,sans-serif" font-weight="400" font-size="37" transform="matrix(1 0 0 1 1009.05 1964)">platform</text><path d="M205.5 1934.41C205.5 1927.83 210.834 1922.5 217.414 1922.5L381.586 1922.5C388.166 1922.5 393.5 1927.83 393.5 1934.41L393.5 2211.59C393.5 2218.17 388.166 2223.5 381.586 2223.5L217.414 2223.5C210.834 2223.5 205.5 2218.17 205.5 2211.59Z" stroke="#001E42" stroke-width="4.58333" stroke-miterlimit="8" fill="#EDF4FA" fill-rule="evenodd"/><text font-family="Arial,Arial_MSFontService,sans-serif" font-weight="400" font-size="37" transform="matrix(1 0 0 1 260.456 2086)">User</text><path d="M393 1986.85 649.929 1986.85 649.929 1989.15 393 1989.15ZM645.346 1978.83 672.846 1988 645.346 1997.17Z"/><path d="M1.47768e-06-1.14583 256.929-1.1455 256.929 1.14616-1.47768e-06 1.14583ZM252.346-9.16634 279.846 0.000360892 252.346 9.16699Z" transform="matrix(-1 0 0 1 672.846 2165)"/><text font-family="Arial,Arial_MSFontService,sans-serif" font-weight="400" font-size="37" transform="matrix(1 0 0 1 495.394 1978)">Data </text><text font-family="Arial,Arial_MSFontService,sans-serif" font-weight="400" font-size="37" transform="matrix(1 0 0 1 478.779 2022)">upload</text><text font-family="Arial,Arial_MSFontService,sans-serif" font-weight="400" font-size="37" transform="matrix(1 0 0 1 482.217 2154)">Result</text><text font-family="Arial,Arial_MSFontService,sans-serif" font-weight="400" font-size="37" transform="matrix(1 0 0 1 452.425 2198)">Download</text><path d="M205.5 1699.67C205.5 1690.19 213.186 1682.5 222.667 1682.5L550.333 1682.5C559.814 1682.5 567.5 1690.19 567.5 1699.67L567.5 1768.33C567.5 1777.81 559.814 1785.5 550.333 1785.5L222.667 1785.5C213.186 1785.5 205.5 1777.81 205.5 1768.33Z" stroke="#70AD47" stroke-width="4.58333" stroke-miterlimit="8" fill="#C5E0B4" fill-rule="evenodd"/><text font-family="Arial,Arial_MSFontService,sans-serif" font-weight="400" font-size="37" transform="matrix(1 0 0 1 339.285 1725)">Novel</text><text font-family="Arial,Arial_MSFontService,sans-serif" font-weight="400" font-size="37" transform="matrix(1 0 0 1 316.368 1769)">peptides</text><path d="M911.5 1604.32C911.5 1593.93 919.927 1585.5 930.321 1585.5L1450.68 1585.5C1461.07 1585.5 1469.5 1593.93 1469.5 1604.32L1469.5 1863.68C1469.5 1874.07 1461.07 1882.5 1450.68 1882.5L930.321 1882.5C919.927 1882.5 911.5 1874.07 911.5 1863.68Z" stroke="#001E42" stroke-width="4.58333" stroke-miterlimit="8" fill="#C5E0B4" fill-rule="evenodd"/><path d="M937.5 1656.67C937.5 1647.19 945.186 1639.5 954.667 1639.5L1426.33 1639.5C1435.81 1639.5 1443.5 1647.19 1443.5 1656.67L1443.5 1725.33C1443.5 1734.81 1435.81 1742.5 1426.33 1742.5L954.667 1742.5C945.186 1742.5 937.5 1734.81 937.5 1725.33Z" stroke="#001E42" stroke-width="4.58333" stroke-miterlimit="8" fill="#CBECFE" fill-rule="evenodd"/><text font-family="Arial,Arial_MSFontService,sans-serif" font-weight="400" font-size="37" transform="matrix(1 0 0 1 982.758 1683)">Peptide confidence score </text><text font-family="Arial,Arial_MSFontService,sans-serif" font-weight="400" font-size="37" transform="matrix(1 0 0 1 1148.61 1727)">= 1 ?</text><text font-family="Arial,Arial_MSFontService,sans-serif" font-weight="400" font-size="37" transform="matrix(1 0 0 1 1001.66 1623)">Quality</text><text font-family="Arial,Arial_MSFontService,sans-serif" font-weight="400" font-size="37" transform="matrix(1 0 0 1 1126.56 1623)">control </text><text font-family="Arial,Arial_MSFontService,sans-serif" font-weight="400" font-size="37" transform="matrix(1 0 0 1 1247.44 1623)">strategy</text><path d="M937.5 1777.67C937.5 1768.19 945.186 1760.5 954.667 1760.5L1426.33 1760.5C1435.81 1760.5 1443.5 1768.19 1443.5 1777.67L1443.5 1846.33C1443.5 1855.81 1435.81 1863.5 1426.33 1863.5L954.667 1863.5C945.186 1863.5 937.5 1855.81 937.5 1846.33Z" stroke="#001E42" stroke-width="4.58333" stroke-miterlimit="8" fill="#CBECFE" fill-rule="evenodd"/><path d="M1309.89 1769.53 1312.67 1769.53 1312.67 1814.22 1309.89 1814.22ZM1030.07 1769.53 1032.86 1769.53 1032.86 1814.22 1030.07 1814.22Z" fill-rule="evenodd"/><text font-family="Cambria Math,Cambria Math_MSFontService,sans-serif" font-weight="400" font-size="37" transform="matrix(1 0 0 1 1037.21 1802)">ğ‘š</text><text font-family="Cambria Math,Cambria Math_MSFontService,sans-serif" font-weight="400" font-size="27" transform="matrix(1 0 0 1 1068.15 1810)">ğ‘ğ‘’ğ‘ğ‘¡ğ‘–ğ‘‘ğ‘’</text><text font-family="Cambria Math,Cambria Math_MSFontService,sans-serif" font-weight="400" font-size="37" transform="matrix(1 0 0 1 1178.88 1802)">âˆ’</text><text font-family="Cambria Math,Cambria Math_MSFontService,sans-serif" font-weight="400" font-size="37" transform="matrix(1 0 0 1 1214.54 1802)">ğ‘š</text><text font-family="Cambria Math,Cambria Math_MSFontService,sans-serif" font-weight="400" font-size="27" transform="matrix(1 0 0 1 1245.47 1810)">ğ‘ğ‘Ÿğ‘’</text><text font-family="Cambria Math,Cambria Math_MSFontService,sans-serif" font-weight="400" font-size="27" transform="matrix(1 0 0 1 1290.73 1810)">c</text><text font-family="Cambria Math,Cambria Math_MSFontService,sans-serif" font-weight="400" font-size="37" transform="matrix(1 0 0 1 1327.2 1802)">&lt;</text><text font-family="Cambria Math,Cambria Math_MSFontService,sans-serif" font-weight="400" font-size="37" transform="matrix(1 0 0 1 1123.53 1850)">0</text><text font-family="Cambria Math,Cambria Math_MSFontService,sans-serif" font-weight="400" font-size="37" transform="matrix(1 0 0 1 1143.59 1850)">.</text><text font-family="Cambria Math,Cambria Math_MSFontService,sans-serif" font-weight="400" font-size="37" transform="matrix(1 0 0 1 1151.03 1850)">1</text><text font-family="Cambria Math,Cambria Math_MSFontService,sans-serif" font-weight="400" font-size="37" transform="matrix(1 0 0 1 1171.09 1850)"> </text><text font-family="Cambria Math,Cambria Math_MSFontService,sans-serif" font-weight="400" font-size="37" transform="matrix(1 0 0 1 1179.11 1850)">ğ·ğ‘</text><text font-family="Arial,Arial_MSFontService,sans-serif" font-weight="400" font-size="37" transform="matrix(1 0 0 1 1236.15 1850)">?</text><path d="M1813.5 1602.5C1813.5 1593.11 1821.11 1585.5 1830.5 1585.5L2158.5 1585.5C2167.89 1585.5 2175.5 1593.11 2175.5 1602.5L2175.5 1670.5C2175.5 1679.89 2167.89 1687.5 2158.5 1687.5L1830.5 1687.5C1821.11 1687.5 1813.5 1679.89 1813.5 1670.5Z" stroke="#70AD47" stroke-width="4.58333" stroke-miterlimit="8" fill="#70AD47" fill-rule="evenodd"/><text font-family="Arial,Arial_MSFontService,sans-serif" font-weight="400" font-size="37" transform="matrix(1 0 0 1 1933.89 1628)">Correct </text><text font-family="Arial,Arial_MSFontService,sans-serif" font-weight="400" font-size="37" transform="matrix(1 0 0 1 1891.49 1672)">identification</text><path d="M1813.5 1797.5C1813.5 1788.11 1821.11 1780.5 1830.5 1780.5L2158.5 1780.5C2167.89 1780.5 2175.5 1788.11 2175.5 1797.5L2175.5 1865.5C2175.5 1874.89 2167.89 1882.5 2158.5 1882.5L1830.5 1882.5C1821.11 1882.5 1813.5 1874.89 1813.5 1865.5Z" stroke="#A6A6A6" stroke-width="4.58333" stroke-miterlimit="8" fill="#A6A6A6" fill-rule="evenodd"/><text font-family="Arial,Arial_MSFontService,sans-serif" font-weight="400" font-size="37" transform="matrix(1 0 0 1 1922.43 1823)">Incorrect </text><text font-family="Arial,Arial_MSFontService,sans-serif" font-weight="400" font-size="37" transform="matrix(1 0 0 1 1891.49 1867)">identification</text><path d="M1469.31 1731.9 1791.52 1823.19 1790.9 1825.39 1468.69 1734.1ZM1789.3 1814.22 1813.26 1830.54 1784.3 1831.86Z" fill="#A6A6A6"/><path d="M0.312354-1.10244 322.521 90.1889 321.896 92.3938-0.312354 1.10244ZM320.297 81.2224 344.257 97.5384 315.3 98.8614Z" fill="#70AD47" transform="matrix(1 0 0 -1 1469 1733.54)"/><path d="M567 1731.85 888.341 1731.85 888.341 1734.15 567 1734.15ZM883.757 1723.83 911.257 1733 883.757 1742.17Z" fill="#70AD47"/><text font-family="Arial,Arial_MSFontService,sans-serif" font-weight="400" font-size="64" transform="matrix(1 0 0 1 167.128 88)">a</text><text font-family="Arial,Arial_MSFontService,sans-serif" font-weight="400" font-size="64" transform="matrix(1 0 0 1 167.128 1065)">b</text><text font-family="Arial,Arial_MSFontService,sans-serif" font-weight="400" font-size="64" transform="matrix(1 0 0 1 167.128 1614)">c</text><text font-family="Arial,Arial_MSFontService,sans-serif" font-weight="400" font-size="64" transform="matrix(1 0 0 1 167.128 1962)">d</text><path d="M517.5 651.5 517.5 889.377" stroke="#FF0000" stroke-width="4.58333" stroke-miterlimit="8" fill="none" fill-rule="evenodd"/><path d="M429.5 651.5 429.5 889.377" stroke="#0070C0" stroke-width="4.58333" stroke-miterlimit="8" fill="none" fill-rule="evenodd"/><path d="M581.5 765.5 581.5 889.367" stroke="#FF0000" stroke-width="4.58333" stroke-miterlimit="8" fill="none" fill-rule="evenodd"/><path d="M364.5 765.5 364.5 889.367" stroke="#0070C0" stroke-width="4.58333" stroke-miterlimit="8" fill="none" fill-rule="evenodd"/><path d="M645.5 789.5 645.5 889.877" stroke="#0070C0" stroke-width="4.58333" stroke-miterlimit="8" fill="none" fill-rule="evenodd"/><path d="M675.5 789.5 675.5 889.877" stroke="#0070C0" stroke-width="4.58333" stroke-miterlimit="8" fill="none" fill-rule="evenodd"/><path d="M301.5 789.5 301.5 889.877" stroke="#FF0000" stroke-width="4.58333" stroke-miterlimit="8" fill="none" fill-rule="evenodd"/><path d="M675.5 743.5 675.5 889.236" stroke="#FF0000" stroke-width="4.58333" stroke-miterlimit="8" fill="none" fill-rule="evenodd"/><path d="M256.5 887.208 691.657 887.209 691.657 891.792 256.5 891.792ZM687.073 880.334 714.573 889.5 687.073 898.667Z"/><path d="M2.29167-3.1512e-06 2.292 239.538-2.29134 239.538-2.29167 3.1512e-06ZM9.16699 234.954 0.000360892 262.454-9.16634 234.954Z" transform="matrix(1 0 0 -1 257.5 888.954)"/><path d="M494.5 626.5 494.501 889.013" stroke="#0070C0" stroke-width="4.58333" stroke-miterlimit="8" fill="none" fill-rule="evenodd"/><text font-family="Calibri,Calibri_MSFontService,sans-serif" font-weight="400" font-size="37" transform="matrix(1 0 0 1 457.054 922)">m/z</text><text font-family="Calibri,Calibri_MSFontService,sans-serif" font-weight="400" font-size="37" transform="matrix(-1.83697e-16 -1 1 -1.83697e-16 242.191 822)">Intensity</text><path d="M207.5 623.761C207.5 617.542 212.542 612.5 218.762 612.5L709.239 612.5C715.458 612.5 720.5 617.542 720.5 623.761L720.5 988.239C720.5 994.458 715.458 999.5 709.239 999.5L218.762 999.5C212.542 999.5 207.5 994.458 207.5 988.239Z" stroke="#9AAED0" stroke-width="4.58333" stroke-miterlimit="8" fill="none" fill-rule="evenodd"/><text font-family="Calibri,Calibri_MSFontService,sans-serif" font-weight="400" font-size="37" transform="matrix(1 0 0 1 378.278 974)">MS2 </text><text font-family="Calibri,Calibri_MSFontService,sans-serif" font-weight="400" font-size="37" transform="matrix(1 0 0 1 452.757 974)">s</text><text font-family="Calibri,Calibri_MSFontService,sans-serif" font-weight="400" font-size="37" transform="matrix(1 0 0 1 467.08 974)">pectrum</text><path d="M452.5 86.5001 452.5 349.013" stroke="#FF0000" stroke-width="4.58333" stroke-miterlimit="8" fill="none" fill-rule="evenodd"/><path d="M517.5 111.5 517.5 349.377" stroke="#FF0000" stroke-width="4.58333" stroke-miterlimit="8" fill="none" fill-rule="evenodd"/><path d="M429.5 111.5 429.5 349.377" stroke="#0070C0" stroke-width="4.58333" stroke-miterlimit="8" fill="none" fill-rule="evenodd"/><path d="M581.5 225.5 581.5 349.367" stroke="#FF0000" stroke-width="4.58333" stroke-miterlimit="8" fill="none" fill-rule="evenodd"/><path d="M364.5 225.5 364.5 349.367" stroke="#0070C0" stroke-width="4.58333" stroke-miterlimit="8" fill="none" fill-rule="evenodd"/><path d="M645.5 248.5 645.5 348.877" stroke="#0070C0" stroke-width="4.58333" stroke-miterlimit="8" fill="none" fill-rule="evenodd"/><path d="M675.5 248.5 675.5 348.877" stroke="#0070C0" stroke-width="4.58333" stroke-miterlimit="8" fill="none" fill-rule="evenodd"/><path d="M272.5 203.5 272.5 349.236" stroke="#0070C0" stroke-width="4.58333" stroke-miterlimit="8" fill="none" fill-rule="evenodd"/><path d="M301.5 248.5 301.5 348.877" stroke="#FF0000" stroke-width="4.58333" stroke-miterlimit="8" fill="none" fill-rule="evenodd"/><path d="M256.5 346.208 691.657 346.209 691.657 350.792 256.5 350.792ZM687.073 339.334 714.573 348.5 687.073 357.667Z"/><path d="M2.29167-3.1512e-06 2.292 239.538-2.29134 239.538-2.29167 3.1512e-06ZM9.16699 234.954 0.000360892 262.454-9.16634 234.954Z" transform="matrix(1 0 0 -1 257.5 348.954)"/><text font-family="Calibri,Calibri_MSFontService,sans-serif" font-weight="400" font-size="37" transform="matrix(1 0 0 1 457.046 381)">m/z</text><text font-family="Calibri,Calibri_MSFontService,sans-serif" font-weight="400" font-size="37" transform="matrix(-1.83697e-16 -1 1 -1.83697e-16 242.183 281)">Intensity</text><path d="M207.5 85.1001C207.5 78.1413 213.141 72.5 220.1 72.5L707.9 72.5C714.859 72.5 720.5 78.1413 720.5 85.1001L720.5 492.9C720.5 499.859 714.859 505.5 707.9 505.5L220.1 505.5C213.141 505.5 207.5 499.859 207.5 492.9Z" stroke="#9AAED0" stroke-width="4.58333" stroke-miterlimit="8" fill="none" fill-rule="evenodd"/><text font-family="Calibri,Calibri_MSFontService,sans-serif" font-weight="400" font-size="37" transform="matrix(1 0 0 1 365.666 432)">Complementary </text><text font-family="Calibri,Calibri_MSFontService,sans-serif" font-weight="400" font-size="37" transform="matrix(1 0 0 1 414.364 476)">Spectrum</text><path d="M1094.5 107.167C1094.5 88.0211 1110.02 72.5 1129.17 72.5L1325.83 72.5C1344.98 72.5 1360.5 88.0211 1360.5 107.167L1360.5 245.833C1360.5 264.979 1344.98 280.5 1325.83 280.5L1129.17 280.5C1110.02 280.5 1094.5 264.979 1094.5 245.833Z" stroke="#2F528F" stroke-width="4.58333" stroke-miterlimit="8" fill="#C7EAFF" fill-rule="evenodd"/><text font-family="Arial,Arial_MSFontService,sans-serif" font-weight="700" font-size="37" transform="matrix(1 0 0 1 1143.16 168)">Decoders</text><text font-family="Arial,Arial_MSFontService,sans-serif" font-weight="700" font-size="37" transform="matrix(1 0 0 1 1143.16 212)">(Reverse)</text><path d="M1.14583-0.000102893 1.15857 141.86-1.13309 141.86-1.14583 0.000102893ZM13.7623 137.275 0.0147966 164.777-13.7377 137.278Z" transform="matrix(1 0 0 -1 1227 444.777)"/><path d="M1094.5 826.167C1094.5 807.021 1110.02 791.5 1129.17 791.5L1325.83 791.5C1344.98 791.5 1360.5 807.021 1360.5 826.167L1360.5 964.833C1360.5 983.979 1344.98 999.5 1325.83 999.5L1129.17 999.5C1110.02 999.5 1094.5 983.979 1094.5 964.833Z" stroke="#2F528F" stroke-width="4.58333" stroke-miterlimit="8" fill="#C7EAFF" fill-rule="evenodd"/><text font-family="Arial,Arial_MSFontService,sans-serif" font-weight="700" font-size="37" transform="matrix(1 0 0 1 1143.16 887)">Decoders</text><text font-family="Arial,Arial_MSFontService,sans-serif" font-weight="700" font-size="37" transform="matrix(1 0 0 1 1142.59 931)">(Forward)</text><path d="M1228.15 626 1228.16 767.86 1225.87 767.86 1225.85 626ZM1240.76 763.276 1227.01 790.777 1213.26 763.278Z"/><path d="M1398.5 364.93C1398.5 351.438 1409.44 340.5 1422.93 340.5L1659.07 340.5C1672.56 340.5 1683.5 351.438 1683.5 364.93L1683.5 706.07C1683.5 719.562 1672.56 730.5 1659.07 730.5L1422.93 730.5C1409.44 730.5 1398.5 719.562 1398.5 706.07Z" stroke="#2F528F" stroke-width="4.58333" stroke-miterlimit="8" fill="#EDF4FA" fill-rule="evenodd"/><path d="M1.14581-0.0071896 1.38384 37.9281-0.907779 37.9425-1.14581 0.0071896ZM13.959 33.2658 0.381824 60.8515-13.5405 33.4383Z" transform="matrix(1 0 0 -1 1540 790.852)"/><path d="M1541.15 279.993 1541.38 317.928 1539.09 317.942 1538.85 280.007ZM1553.96 313.266 1540.38 340.851 1526.46 313.438Z"/><path d="M753.5 490.167C753.5 471.021 769.021 455.5 788.167 455.5L985.833 455.5C1004.98 455.5 1020.5 471.021 1020.5 490.167L1020.5 628.833C1020.5 647.979 1004.98 663.5 985.833 663.5L788.167 663.5C769.021 663.5 753.5 647.979 753.5 628.833Z" stroke="#2F528F" stroke-width="4.58333" stroke-miterlimit="8" fill="#C7EAFF" fill-rule="evenodd"/><text font-family="Arial,Arial_MSFontService,sans-serif" font-weight="700" font-size="37" transform="matrix(1 0 0 1 812.834 573)">Encoder</text><path d="M0-1.14583 38.2133-1.14583 38.2133 383.096 37.0675 381.95 51.2178 381.95 51.2178 384.242 35.9216 384.242 35.9216 0 37.0675 1.14583 0 1.14583ZM46.6345 369.346 74.1345 383.096 46.6345 396.846Z" transform="matrix(1 0 0 -1 1020 559.096)"/><path d="M1020 557.854 1058.21 557.854 1058.21 895.244 1057.07 894.098 1071.22 894.098 1071.22 896.39 1055.92 896.39 1055.92 559 1057.07 560.146 1020 560.146ZM1066.63 881.494 1094.13 895.244 1066.63 908.994Z"/><path d="M1094.5 474.834C1094.5 458.081 1108.08 444.5 1124.83 444.5L1330.17 444.5C1346.92 444.5 1360.5 458.081 1360.5 474.834L1360.5 596.166C1360.5 612.919 1346.92 626.5 1330.17 626.5L1124.83 626.5C1108.08 626.5 1094.5 612.919 1094.5 596.166Z" stroke="#001E42" stroke-width="4.58333" stroke-miterlimit="8" fill="#FBE3AA" fill-rule="evenodd"/><text font-family="Arial,Arial_MSFontService,sans-serif" font-weight="400" font-size="37" transform="matrix(1 0 0 1 1147.45 549)">Precursor</text><path d="M1416.5 826.168C1416.5 807.021 1432.02 791.5 1451.17 791.5L1629.83 791.5C1648.98 791.5 1664.5 807.021 1664.5 826.168L1664.5 964.833C1664.5 983.979 1648.98 999.5 1629.83 999.5L1451.17 999.5C1432.02 999.5 1416.5 983.979 1416.5 964.833Z" stroke="#001E42" stroke-width="4.58333" stroke-miterlimit="8" fill="#C5E0B4" fill-rule="evenodd"/><text font-family="Arial,Arial_MSFontService,sans-serif" font-weight="400" font-size="37" transform="matrix(1 0 0 1 1461.34 878)">PEPTIDE</text><text font-family="Cambria Math,Cambria Math_MSFontService,sans-serif" font-weight="400" font-size="48" transform="matrix(1 0 0 1 1515.52 932)">ğ‘</text><text font-family="Cambria Math,Cambria Math_MSFontService,sans-serif" font-weight="400" font-size="35" transform="matrix(1 0 0 1 1540.56 942)">ğ‘“</text><path d="M720 287.854 887.672 287.854 887.672 432.408 885.381 432.408 885.381 289 886.526 290.146 720 290.146ZM900.276 427.825 886.526 455.325 872.776 427.825Z"/><path d="M0-1.14583 167.664-1.14583 167.664 119.982 165.373 119.982 165.373 0 166.519 1.14583 0 1.14583ZM180.269 115.399 166.519 142.899 152.769 115.399Z" transform="matrix(1 0 0 -1 720 805.899)"/><path d="M1416.5 107.167C1416.5 88.0211 1432.02 72.5 1451.17 72.5L1629.83 72.5C1648.98 72.5 1664.5 88.0211 1664.5 107.167L1664.5 245.833C1664.5 264.979 1648.98 280.5 1629.83 280.5L1451.17 280.5C1432.02 280.5 1416.5 264.979 1416.5 245.833Z" stroke="#001E42" stroke-width="4.58333" stroke-miterlimit="8" fill="#C5E0B4" fill-rule="evenodd"/><text font-family="Arial,Arial_MSFontService,sans-serif" font-weight="400" font-size="37" transform="matrix(1 0 0 1 1461.34 161)">EDITPEP</text><text font-family="Cambria Math,Cambria Math_MSFontService,sans-serif" font-weight="400" font-size="48" transform="matrix(1 0 0 1 1516.87 214)">ğ‘</text><text font-family="Cambria Math,Cambria Math_MSFontService,sans-serif" font-weight="400" font-size="35" transform="matrix(1 0 0 1 1541.92 224)">ğ‘Ÿ</text><path d="M0.000236233-1.14583 33.0991-1.13901 33.0986 1.15266-0.000236233 1.14583ZM28.5184-13.7441 56.0156 0.0115486 28.5127 13.7559Z" transform="matrix(1 0 0 -1 1360 176.012)"/><path d="M0.000236233-1.14583 33.0991-1.13901 33.0986 1.15266-0.000236233 1.14583ZM28.5184-13.7441 56.0156 0.0115486 28.5127 13.7559Z" transform="matrix(1 0 0 -1 1360 895.012)"/><path d="M1743.5 86.0715C1743.5 79.1285 1749.13 73.5001 1756.07 73.5001L2162.93 73.5001C2169.87 73.5001 2175.5 79.1285 2175.5 86.0715L2175.5 986.929C2175.5 993.872 2169.87 999.5 2162.93 999.5L1756.07 999.5C1749.13 999.5 1743.5 993.872 1743.5 986.929Z" stroke="#9AAED0" stroke-width="4.58333" stroke-miterlimit="8" fill="none" fill-rule="evenodd"/><path d="M1683.01 533.854 1719.97 534.149 1719.95 536.44 1682.99 536.146ZM1715.48 521.508 1742.87 535.477 1715.26 549.007Z"/><text font-family="Arial,Arial_MSFontService,sans-serif" font-weight="700" font-size="37" transform="matrix(1 0 0 1 1848.55 125)">Applications</text><path d="M1763.5 155.609C1763.5 150.026 1768.03 145.5 1773.61 145.5L2148.39 145.5C2153.97 145.5 2158.5 150.026 2158.5 155.609L2158.5 252.391C2158.5 257.974 2153.97 262.5 2148.39 262.5L1773.61 262.5C1768.03 262.5 1763.5 257.974 1763.5 252.391Z" stroke="#001E42" stroke-width="4.58333" stroke-miterlimit="8" fill="#EDF4FA" fill-rule="evenodd"/><text font-family="Arial,Arial_MSFontService,sans-serif" font-weight="400" font-size="37" transform="matrix(1 0 0 1 1888.63 195)">Antibody</text><text font-family="Arial,Arial_MSFontService,sans-serif" font-weight="400" font-size="37" transform="matrix(1 0 0 1 1857.97 239)">identification</text><path d="M1763.5 316.769C1763.5 309.993 1768.99 304.5 1775.77 304.5L2146.23 304.5C2153.01 304.5 2158.5 309.993 2158.5 316.769L2158.5 434.231C2158.5 441.007 2153.01 446.5 2146.23 446.5L1775.77 446.5C1768.99 446.5 1763.5 441.007 1763.5 434.231Z" stroke="#001E42" stroke-width="4.58333" stroke-miterlimit="8" fill="#EDF4FA" fill-rule="evenodd"/><text font-family="Arial,Arial_MSFontService,sans-serif" font-weight="400" font-size="37" transform="matrix(1 0 0 1 1842.22 345)">Cross</text><text font-family="Arial,Arial_MSFontService,sans-serif" font-weight="400" font-size="37" transform="matrix(1 0 0 1 1937.89 345)">-</text><text font-family="Arial,Arial_MSFontService,sans-serif" font-weight="400" font-size="37" transform="matrix(1 0 0 1 1949.92 345)">enzyme </text><text font-family="Arial,Arial_MSFontService,sans-serif" font-weight="400" font-size="37" transform="matrix(1 0 0 1 1899.78 389)">peptide </text><text font-family="Arial,Arial_MSFontService,sans-serif" font-weight="400" font-size="37" transform="matrix(1 0 0 1 1857.96 433)">identification</text><path d="M1763.5 500.855C1763.5 494.031 1769.03 488.5 1775.85 488.5L2146.14 488.5C2152.97 488.5 2158.5 494.031 2158.5 500.855L2158.5 619.145C2158.5 625.968 2152.97 631.5 2146.14 631.5L1775.85 631.5C1769.03 631.5 1763.5 625.968 1763.5 619.145Z" stroke="#001E42" stroke-width="4.58333" stroke-miterlimit="8" fill="#EDF4FA" fill-rule="evenodd"/><text font-family="Arial,Arial_MSFontService,sans-serif" font-weight="400" font-size="37" transform="matrix(1 0 0 1 1837.92 530)">Non</text><text font-family="Arial,Arial_MSFontService,sans-serif" font-weight="400" font-size="37" transform="matrix(1 0 0 1 1905.52 530)">-</text><text font-family="Arial,Arial_MSFontService,sans-serif" font-weight="400" font-size="37" transform="matrix(1 0 0 1 1917.55 530)">enzymatic</text><text font-family="Arial,Arial_MSFontService,sans-serif" font-weight="400" font-size="37" transform="matrix(1 0 0 1 1899.79 574)">peptide </text><text font-family="Arial,Arial_MSFontService,sans-serif" font-weight="400" font-size="37" transform="matrix(1 0 0 1 1857.97 618)">identification</text><path d="M1763.5 685.855C1763.5 679.031 1769.03 673.5 1775.85 673.5L2146.14 673.5C2152.97 673.5 2158.5 679.031 2158.5 685.855L2158.5 804.145C2158.5 810.968 2152.97 816.5 2146.14 816.5L1775.85 816.5C1769.03 816.5 1763.5 810.968 1763.5 804.145Z" stroke="#001E42" stroke-width="4.58333" stroke-miterlimit="8" fill="#EDF4FA" fill-rule="evenodd"/><text font-family="Arial,Arial_MSFontService,sans-serif" font-weight="400" font-size="37" transform="matrix(1 0 0 1 1818.16 714)">Post</text><text font-family="Arial,Arial_MSFontService,sans-serif" font-weight="400" font-size="37" transform="matrix(1 0 0 1 1892.07 714)">-</text><text font-family="Arial,Arial_MSFontService,sans-serif" font-weight="400" font-size="37" transform="matrix(1 0 0 1 1904.1 714)">translational </text><text font-family="Arial,Arial_MSFontService,sans-serif" font-weight="400" font-size="37" transform="matrix(1 0 0 1 1806.41 758)">m</text><text font-family="Arial,Arial_MSFontService,sans-serif" font-weight="400" font-size="37" transform="matrix(1 0 0 1 1836.77 758)">odification (PTM) </text><text font-family="Arial,Arial_MSFontService,sans-serif" font-weight="400" font-size="37" transform="matrix(1 0 0 1 1885.47 802)">detection</text><path d="M1763.5 868.609C1763.5 863.026 1768.03 858.5 1773.61 858.5L2148.39 858.5C2153.97 858.5 2158.5 863.026 2158.5 868.609L2158.5 965.391C2158.5 970.974 2153.97 975.5 2148.39 975.5L1773.61 975.5C1768.03 975.5 1763.5 970.974 1763.5 965.391Z" stroke="#001E42" stroke-width="4.58333" stroke-miterlimit="8" fill="#EDF4FA" fill-rule="evenodd"/><text font-family="Arial,Arial_MSFontService,sans-serif" font-weight="400" font-size="37" transform="matrix(1 0 0 1 1806.69 908)">Gut metaproteome </text><text font-family="Arial,Arial_MSFontService,sans-serif" font-weight="400" font-size="37" transform="matrix(1 0 0 1 1894.05 952)">analysis</text><path d="M1419.5 379.758C1419.5 372.988 1424.99 367.5 1431.76 367.5L1654.24 367.5C1661.01 367.5 1666.5 372.988 1666.5 379.758L1666.5 498.242C1666.5 505.012 1661.01 510.5 1654.24 510.5L1431.76 510.5C1424.99 510.5 1419.5 505.012 1419.5 498.242Z" stroke="#2F528F" stroke-width="4.58333" stroke-miterlimit="8" fill="#66FF99" fill-rule="evenodd"/><text font-family="Arial,Arial_MSFontService,sans-serif" font-weight="400" font-size="37" transform="matrix(1 0 0 1 1494.3 431)">Top</text><text font-family="Arial,Arial_MSFontService,sans-serif" font-weight="400" font-size="37" transform="matrix(1 0 0 1 1557.89 431)">-</text><text font-family="Arial,Arial_MSFontService,sans-serif" font-weight="400" font-size="37" transform="matrix(1 0 0 1 1569.92 431)">1 </text><text font-family="Arial,Arial_MSFontService,sans-serif" font-weight="400" font-size="37" transform="matrix(1 0 0 1 1497.46 475)">result</text><path d="M1419.5 572.758C1419.5 565.988 1424.99 560.5 1431.76 560.5L1654.24 560.5C1661.01 560.5 1666.5 565.988 1666.5 572.758L1666.5 691.242C1666.5 698.012 1661.01 703.5 1654.24 703.5L1431.76 703.5C1424.99 703.5 1419.5 698.012 1419.5 691.242Z" stroke="#2F528F" stroke-width="4.58333" stroke-miterlimit="8" fill="#66FF99" fill-rule="evenodd"/><text font-family="Arial,Arial_MSFontService,sans-serif" font-weight="400" font-size="37" transform="matrix(1 0 0 1 1490.29 601)">Result </text><text font-family="Arial,Arial_MSFontService,sans-serif" font-weight="400" font-size="37" transform="matrix(1 0 0 1 1489.14 645)">quality </text><text font-family="Arial,Arial_MSFontService,sans-serif" font-weight="400" font-size="37" transform="matrix(1 0 0 1 1458.21 689)">evaluation</text><path d="M1543.15 510 1543.15 536.64 1540.85 536.64 1540.85 510ZM1555.75 532.056 1542 559.556 1528.25 532.057Z"/><path d="M461.862 611.957 461.856 527.917 464.147 527.917 464.153 611.956ZM449.252 532.501 463 505 476.752 532.499Z"/></g></svg>